<mxfile host="app.diagrams.net" modified="2023-08-22T20:21:00.173Z" agent="Mozilla/5.0 (Windows NT 10.0; Win64; x64) AppleWebKit/537.36 (KHTML, like Gecko) Chrome/116.0.0.0 Safari/537.36" version="21.6.9" etag="LeuvAo_YdkMQpi4ZspON" type="github">
  <diagram name="PÃ¡gina-1" id="bUaak_N1VkIxOP4g0amv">
    <mxGraphModel>
      <root>
        <mxCell id="0" />
        <mxCell id="1" parent="0" />
      </root>
    </mxGraphModel>
  </diagram>
</mxfile>
